HIERARCHY
ROOT Hips
{
  OFFSET -14.371 96.9772 -163.843
  CHANNELS 6 Xposition Yposition Zposition Zrotation Xrotation Yrotation
  JOINT ToSpine
  {
    OFFSET -2.69724 7.43032 -0.144315
    CHANNELS 3 Zrotation Xrotation Yrotation
    JOINT Spine
    {
      OFFSET -0.0310711 10.7595 1.96963
      CHANNELS 3 Zrotation Xrotation Yrotation
      JOINT Spine1
      {
        OFFSET 13.1342 3.43533 0.764692
        CHANNELS 3 Zrotation Xrotation Yrotation
        JOINT Neck
        {
          OFFSET 29.8703 7.82586 -0.130764
          CHANNELS 3 Zrotation Xrotation Yrotation
          JOINT Head
          {
            OFFSET 9.52751 0.295786 -0.907742
            CHANNELS 3 Zrotation Xrotation Yrotation
            End Site
            {
              OFFSET 16.4037 0.713936 2.7358
            }
          }
        }
        JOINT LeftShoulder
        {
          OFFSET 27.5574 4.95586 2.47156
          CHANNELS 3 Zrotation Xrotation Yrotation
          JOINT LeftArm
          {
            OFFSET 1.20734 -0.998971 20.1238
            CHANNELS 3 Zrotation Xrotation Yrotation
            JOINT LeftForeArm
            {
              OFFSET 26.8049 -0.0536703 -0.155908
              CHANNELS 3 Zrotation Xrotation Yrotation
              JOINT LeftHand
              {
                OFFSET 26.6817 0 0.320147
                CHANNELS 3 Zrotation Xrotation Yrotation
                End Site
                {
                  OFFSET 18.6119 0 0.382219
                }
              }
            }
          }
        }
        JOINT RightShoulder
        {
          OFFSET 27.5927 4.71444 -2.65209
          CHANNELS 3 Zrotation Xrotation Yrotation
          JOINT RightArm
          {
            OFFSET 2.83739 -1.17114 -18.7564
            CHANNELS 3 Zrotation Xrotation Yrotation
            JOINT RightForeArm
            {
              OFFSET 28.839 -0.0548439 1.22491
              CHANNELS 3 Zrotation Xrotation Yrotation
              JOINT RightHand
              {
                OFFSET 26.5114 0 -0.101894
                CHANNELS 3 Zrotation Xrotation Yrotation
                End Site
                {
                  OFFSET 18.2168 0 0
                }
              }
            }
          }
        }
      }
    }
  }
  JOINT LeftUpLeg
  {
    OFFSET -4.76168 -1.9167 -10.2353
    CHANNELS 3 Zrotation Xrotation Yrotation
    JOINT LeftLeg
    {
      OFFSET 2.55951 -42.0585 -8.02213
      CHANNELS 3 Zrotation Xrotation Yrotation
      JOINT LeftFoot
      {
        OFFSET 3.16357 -42.5282 -3.95426
        CHANNELS 3 Zrotation Xrotation Yrotation
        JOINT LeftToeBase
        {
          OFFSET 0.346054 -6.02161 12.8035
          CHANNELS 3 Zrotation Xrotation Yrotation
          End Site
          {
            OFFSET 0.134235 -1.35082 5.13018
          }
        }
      }
    }
  }
  JOINT RightUpLeg
  {
    OFFSET -4.94151 -1.41743 10.6446
    CHANNELS 3 Zrotation Xrotation Yrotation
    JOINT RightLeg
    {
      OFFSET -2.56294 -42.0364 -7.94377
      CHANNELS 3 Zrotation Xrotation Yrotation
      JOINT RightFoot
      {
        OFFSET -3.0952 -42.555 -4.02241
        CHANNELS 3 Zrotation Xrotation Yrotation
        JOINT RightToeBase
        {
          OFFSET -0.0828122 -6.13587 12.8035
          CHANNELS 3 Zrotation Xrotation Yrotation
          End Site
          {
            OFFSET -0.131328 -1.35082 5.13018
          }
        }
      }
    }
  }
}
MOTION
Frames:	13
Frame Time:	0.0333333
7.76304 88.7205 -161.478 -3.56361 -71.1116 -96.3559 -70.1915 0 88.8779 91.3098 71.5064 -4.142 0.358595 20.504 4.01355 -153.287 21.1315 174.627 -157.9 60.6201 -171.1 0.40902 -12.9724 -33.5419 -86.0603 44.7035 -78.7972 10.0383 16.4152 -31.665 0.420957 0.000575426 0.35866 -2.08376 6.35025 47.1529 -72.4387 -23.9468 84.5429 1.68476 -10.453 23.8614 0.58676 0.000331143 0.0646653 -47.1009 19.7506 81.0316 -2.77245 35.57 -10.763 -7.69216 -4.16737 0.333807 5.25319 -12.1164 5.91322 -38.4707 -15.6328 99.0229 2.3345 50.6362 -3.33526 1.17166 -14.5222 1.28584 1.98476 -14.6704 -6.04872 
11.4934 88.5479 -161.268 -1.75115 -71.7844 -93.6942 -70.1915 0 88.8779 90.7228 71.7021 -3.42513 1.33139 20.5856 4.25972 -152.869 21.6337 173.911 -156.915 61.0735 -172.006 0.374484 -13.1274 -33.5246 -86.4252 44.7854 -79.3976 12.3723 20.3326 -31.8164 0.420957 0.000575426 0.35866 -2.08165 6.36432 47.0518 -76.0802 -22.828 82.4824 1.48056 -12.3322 23.1436 0.58676 0.000331143 0.0646653 -46.2175 18.9755 82.6676 -3.11841 38.7531 -13.1531 -5.76047 -8.73184 -0.473558 6.57298 -14.5861 7.0305 -40.8731 -17.7628 98.6402 1.77892 47.2067 -4.19144 1.0861 -10.5701 0.926554 2.21332 -17.7432 -3.12445 
15.2549 88.9742 -161.275 1.10069 -72.5322 -90.8145 -70.1915 0 88.8779 92.4431 72.0185 -6.39141 0.927125 20.6002 5.34155 -151.905 22.3544 173.612 -156.107 61.7537 -172.614 0.248632 -13.614 -33.9615 -81.7875 44.5608 -82.9305 11.1018 18.6282 -31.1391 0.420957 0.000575426 0.35866 -2.08143 6.28123 47.4677 -80.8012 -21.4154 79.8333 1.76266 -14.9543 22.5591 0.58676 0.000331143 0.0646653 -45.2702 16.5507 83.5897 -3.52657 42.0498 -13.5876 -3.83205 -11.5682 -0.907431 6.06659 -13.7487 7.55191 -43.6482 -19.746 100.006 1.38562 43.1195 -4.34774 1.16238 -5.71295 0.495738 2.26183 -18.2512 -3.45981 
19.0919 89.6488 -161.431 5.32348 -73.111 -86.4333 -70.1915 0 88.8779 93.8232 72.0868 -8.5784 1.10358 20.5456 5.93686 -151.586 22.7987 173.641 -157.096 62.2928 -171.625 0.175961 -13.9265 -33.9575 -77.8831 44.1393 -86.3034 10.7347 18.2089 -30.8304 0.420957 0.000575426 0.35866 -2.00287 6.05274 47.4674 -86.1456 -21.2494 77.8378 2.53165 -17.1435 22.368 0.58676 0.000331143 0.0646653 -43.629 13.6267 83.2912 -4.04138 45.8684 -14.5044 -2.26505 -12.2785 -1.01804 6.01176 -13.808 9.27265 -46.0641 -21.5672 101.19 1.13223 39.6326 -4.43511 0.62268 0.235045 0.0440227 2.24543 -18.1751 -6.01383 
22.7301 90.6603 -161.48 5.98657 -73.0261 -85.4034 -70.1915 0 88.8779 93.9836 72.2459 -7.91859 1.24997 20.9639 5.06673 -150.897 23.2015 173.628 -156.882 62.6774 -171.909 0.190562 -13.9344 -33.488 -74.0265 43.6918 -88.8743 10.3844 17.5017 -30.9521 0.420957 0.000575426 0.35866 -1.87594 5.81539 46.7169 -90.018 -23.1655 76.2342 4.23999 -18.3809 23.1581 0.58676 0.000331143 0.0646653 -43.1796 11.793 84.6188 -4.15508 46.824 -14.0999 -0.83545 -13.0504 -1.11642 5.23305 -12.3344 8.00282 -46.9441 -22.4291 101.054 0.0981964 36.4687 -3.77633 -0.275201 6.17597 -0.270718 2.0642 -13.5461 -9.60781 
26.0373 91.8538 -161.566 3.27396 -72.3176 -87.8529 -70.1915 0 88.8779 91.6936 72.6805 -4.34328 1.57054 21.6388 4.03035 -151.248 23.6813 174.841 -158.542 63.2106 -170.497 0.205502 -13.8393 -33.6906 -72.9968 43.0922 -88.6781 10.4845 17.065 -31.8329 0.420957 0.000575426 0.35866 -1.85554 5.90336 45.9215 -89.594 -25.7635 75.9741 5.47208 -15.3941 24.9924 0.58676 0.000331143 0.0646653 -43.5328 9.96185 85.6637 -3.85761 45.4958 -12.9445 0.623366 -13.3431 -1.15943 4.5982 -11.1389 7.45495 -45.8851 -23.0627 97.2764 -1.69666 34.2204 -0.44655 -1.93793 9.36517 -0.167851 1.93934 -5.91049 -11.0066 
28.8478 92.8022 -161.835 1.36334 -71.8818 -89.8929 -70.1915 0 88.8779 91.4572 72.9366 -4.65433 0.899028 21.8632 4.25891 -152.092 23.808 175.507 -159.929 63.3701 -169.87 0.309853 -13.4195 -33.4426 -74.3303 42.715 -86.3885 11.4214 17.6172 -33.3011 0.420957 0.000575426 0.35866 -1.88712 5.96951 46.0815 -86.4538 -27.6377 77.595 5.90862 -12.493 26.8049 0.58676 0.000331143 0.0646653 -43.9275 7.86548 86.235 -3.6274 44.2704 -12.2583 1.05552 -13.0923 -1.14551 4.17084 -10.5038 8.22771 -44.593 -22.0541 98.6429 -0.936238 35.2751 -1.16481 -2.80234 7.16853 0.134941 2.00556 -4.88786 -11.7944 
30.9973 93.7109 -162.112 0.478656 -72.0791 -90.6348 -70.1915 0 88.8779 92.3608 73.0623 -6.67796 0.634573 21.8585 4.71196 -153.031 23.7278 175.649 -160.728 63.3232 -169.606 0.349576 -13.2754 -33.1999 -75.41 42.1553 -84.4718 11.0536 16.7481 -33.7214 0.420957 0.000575426 0.35866 -1.89624 5.9366 46.3974 -83.2397 -28.7048 79.9429 6.2083 -11.7232 28.2426 0.58676 0.000331143 0.0646653 -45.0391 6.45634 86.5016 -3.42506 42.5135 -12.171 1.02001 -12.683 -1.11549 3.63044 -9.63048 8.64932 -44.9203 -17.7251 103.364 0.793284 37.6097 -5.48054 -3.08608 2.66598 0.411794 2.40416 -7.63813 -15.4409 
32.9104 94.4087 -162.432 -0.496201 -71.8603 -90.8716 -70.1915 0 88.8779 92.7682 73.0657 -7.0037 0.479725 21.886 4.54836 -153.436 23.7629 175.711 -161.203 63.3933 -169.014 0.317643 -13.4572 -32.9157 -75.0996 41.766 -83.7105 9.4039 14.3966 -33.3001 0.420957 0.000575426 0.35866 -1.86989 5.81793 46.6079 -80.5241 -29.519 82.3453 7.0674 -12.7097 29.5638 0.58676 0.000331143 0.0646653 -45.2792 5.70998 86.2839 -3.20484 41.3107 -11.1369 1.47869 -12.5564 -1.11574 3.06789 -8.39322 7.39862 -44.3394 -13.9957 102.061 0.89884 40.36 -6.32818 -3.89082 -1.61079 0.718737 2.3967 -11.0185 -16.2283 
34.5666 95.0444 -162.763 1.00508 -71.4797 -89.0862 -70.1915 0 88.8779 90.5057 72.827 -5.72569 0.556445 21.4809 4.75792 -153.394 23.5503 174.81 -159.712 63.1327 -170.308 0.343598 -13.4435 -32.1463 -77.0868 41.2616 -82.0855 10.6811 16.8388 -32.6644 0.420957 0.000575426 0.35866 -1.87662 5.79618 46.8353 -78.8799 -30.2009 84.0755 8.75098 -14.8735 31.0515 0.58676 0.000331143 0.0646653 -45.3681 4.61087 86.2743 -3.00611 39.7502 -10.6619 2.28891 -11.8523 -1.0866 2.71115 -7.39052 5.84988 -43.5546 -11.2019 98.6474 0.841965 42.7975 -7.78142 -4.91094 -5.91755 0.99122 2.30593 -13.1868 -14.6228 
36.0948 95.5506 -163.129 2.43131 -71.5254 -87.1763 -70.1915 0 88.8779 91.3879 72.6384 -7.26077 0.0661491 21.1514 5.21899 -153.358 23.4843 174.768 -160.101 63.1095 -169.564 0.306021 -13.6631 -31.8498 -77.0564 40.5719 -81.9302 10.5706 17.3534 -31.6188 0.420957 0.000575426 0.35866 -1.89977 5.84555 46.94 -78.9451 -30.8644 84.086 9.8504 -15.5929 32.9338 0.58676 0.000331143 0.0646653 -45.7597 3.85428 86.1348 -2.93421 38.5076 -10.9581 2.26322 -11.331 -1.05462 2.5244 -7.03706 5.82334 -43.374 -8.29097 94.3851 1.05424 44.5462 -7.01958 -5.94496 -8.53616 1.13957 2.33549 -15.3783 -16.9263 
37.434 95.9671 -163.461 4.19961 -71.2058 -85.0714 -70.1915 0 88.8779 90.1076 72.4675 -6.45763 -0.0445889 20.8746 5.36774 -153.928 23.6466 174.791 -160.269 63.2478 -170.258 0.26622 -13.8548 -31.8119 -77.0566 39.8473 -82.0345 9.9653 17.2848 -30.2798 0.420957 0.000575426 0.35866 -1.91292 5.88933 46.9174 -76.7153 -31.4137 85.3212 9.69111 -14.5108 34.3476 0.58676 0.000331143 0.0646653 -45.7032 3.07914 86.109 -2.84071 37.4513 -10.8852 2.54863 -10.7536 -1.03021 2.36467 -6.49488 4.84077 -43.2295 -5.52172 90.0069 1.01793 44.8557 -7.37011 -6.79322 -10.7266 1.23114 2.27787 -17.1064 -15.0795 
38.6527 96.2429 -163.768 5.54358 -71.0752 -83.7186 -70.1915 0 88.8779 90.2308 72.3146 -6.97337 -0.62262 20.8218 5.04908 -153.261 23.5398 173.9 -159.523 63.1459 -170.468 0.259224 -13.9407 -31.4898 -77.1496 39.0658 -81.9623 9.31645 17.3691 -29.0412 0.420957 0.000575426 0.35866 -1.94139 5.83958 47.6412 -75.7613 -31.4554 85.4124 9.95938 -14.3608 35.3676 0.58676 0.000331143 0.0646653 -45.8107 2.4496 86.8114 -2.7925 36.546 -11.056 3.55374 -10.4506 -1.04905 2.16585 -5.62666 3.07575 -43.2765 -2.76858 87.0033 0.989219 44.6473 -7.39052 -7.04422 -12.8546 1.27227 2.27014 -17.5957 -14.1117 
